<svg xmlns="http://www.w3.org/2000/svg" viewBox="0 0 476 476" width="476" height="476">
	<style>
		tspan { white-space:pre }
		.shp0 { fill: #fefefe } 
	</style>
	<g id="Layer">
		<g id="Layer">
			<path id="Layer" class="shp0" d="M285.65,326.77c3.14,9.43 4.71,19.55 4.71,30.41c0,30.45 -13.32,57.29 -39.97,80.52c-28.93,24.93 -68.9,37.4 -119.91,37.4c-11.23,0 -22.6,-0.95 -34.12,-2.85c-11.51,-1.9 -23.12,-5.09 -34.83,-9.56c-11.7,-4.48 -22.03,-9.99 -30.98,-16.56c-8.95,-6.56 -16.27,-15.04 -21.98,-25.41c-5.71,-10.38 -8.56,-21.94 -8.56,-34.69c0,-11.61 3.52,-24.46 10.57,-38.54c6.09,-12.18 15.23,-22.69 27.41,-31.55c12.18,-8.85 25.98,-15.61 41.4,-20.27c15.42,-4.66 30.17,-8.09 44.25,-10.28c14.09,-2.19 28.36,-3.47 42.83,-3.86c-12.18,-15.8 -18.27,-29.98 -18.27,-42.54c0,-2.28 0.19,-4.52 0.57,-6.71c0.38,-2.19 0.86,-4.05 1.43,-5.57c0.57,-1.52 1.33,-3.57 2.29,-6.14c0.95,-2.57 1.62,-4.62 2,-6.14c-7.61,0.95 -14.27,1.43 -19.98,1.43c-28.36,0 -52.68,-9.33 -72.94,-27.98c-20.27,-18.65 -30.41,-42.06 -30.41,-70.23c0,-26.65 9.04,-50.49 27.12,-71.52c18.08,-21.03 40.35,-34.5 66.81,-40.4c17.89,-3.81 35.68,-5.72 53.38,-5.72h124.76l-38.54,22.56h-38.54c13.52,8.56 23.98,20.56 31.41,35.98c7.42,15.41 11.14,31.5 11.14,48.25c0,14.08 -2.19,26.6 -6.56,37.54c-4.38,10.95 -9.71,19.75 -15.98,26.41c-6.28,6.66 -12.56,12.8 -18.84,18.41c-6.28,5.62 -11.61,11.42 -15.99,17.42c-4.38,6 -6.57,12.42 -6.57,19.27c0,4.95 1.57,9.8 4.71,14.56c3.14,4.76 7.23,9.33 12.28,13.7c5.04,4.38 10.61,8.95 16.7,13.71c6.09,4.76 12.18,10.04 18.27,15.85c6.09,5.8 11.66,12.08 16.7,18.84c5.05,6.76 9.14,14.84 12.28,24.27zM203.43,181.45c8.28,-11.52 12.42,-26.8 12.42,-45.83c0,-11.42 -1.57,-23.56 -4.71,-36.4c-3.14,-12.85 -7.62,-25.27 -13.42,-37.26c-5.81,-11.99 -13.8,-21.89 -23.98,-29.69c-10.18,-7.8 -21.56,-11.7 -34.12,-11.7c-17.7,0 -31.41,6.57 -41.11,19.7c-9.71,13.13 -14.56,28.84 -14.56,47.11c0,8.95 1.09,18.37 3.28,28.27c2.19,9.9 5.57,19.8 10.14,29.69c4.57,9.9 9.9,18.8 15.99,26.69c6.09,7.9 13.51,14.32 22.27,19.27c8.76,4.95 17.99,7.43 27.69,7.43c18.46,0 31.83,-5.76 40.12,-17.27zM250.1,381.73c0,-4 -0.43,-7.85 -1.28,-11.57c-0.85,-3.71 -1.76,-7.13 -2.71,-10.28c-0.95,-3.14 -2.62,-6.42 -5,-9.86c-2.38,-3.42 -4.38,-6.32 -6,-8.7c-1.62,-2.38 -4.14,-5.19 -7.57,-8.42c-3.43,-3.23 -6.05,-5.66 -7.85,-7.28c-1.81,-1.62 -4.85,-4.04 -9.13,-7.28c-4.28,-3.24 -7.23,-5.43 -8.85,-6.56c-1.62,-1.14 -4.76,-3.33 -9.42,-6.57c-4.66,-3.24 -7.56,-5.23 -8.71,-6c-3.23,-0.38 -7.99,-0.57 -14.28,-0.57c-10.28,0 -20.37,0.66 -30.26,2c-9.9,1.33 -20.17,3.71 -30.83,7.14c-10.66,3.42 -19.98,7.8 -27.98,13.13c-7.99,5.32 -14.56,12.46 -19.7,21.41c-5.14,8.95 -7.71,19.13 -7.71,30.55c0,12.95 3.38,24.51 10.13,34.69c6.76,10.18 15.61,18.18 26.55,23.98c10.94,5.8 22.41,10.14 34.4,12.99c11.99,2.85 24.08,4.28 36.26,4.28c11.23,0 21.94,-1.19 32.12,-3.57c10.18,-2.38 19.75,-6.09 28.69,-11.14c8.95,-5.04 16.04,-12.03 21.27,-20.98c5.24,-8.94 7.85,-19.41 7.85,-31.4z" />
			<path id="Layer" class="shp0" d="M402,73.09v-73.09h-36.55v73.09h-73.09v36.55h73.09v73.09h36.55v-73.09h73.08v-36.55z" />
		</g>
	</g>
	<g id="Layer">
	</g>
	<g id="Layer">
	</g>
	<g id="Layer">
	</g>
	<g id="Layer">
	</g>
	<g id="Layer">
	</g>
	<g id="Layer">
	</g>
	<g id="Layer">
	</g>
	<g id="Layer">
	</g>
	<g id="Layer">
	</g>
	<g id="Layer">
	</g>
	<g id="Layer">
	</g>
	<g id="Layer">
	</g>
	<g id="Layer">
	</g>
	<g id="Layer">
	</g>
	<g id="Layer">
	</g>
</svg>