<svg xmlns="http://www.w3.org/2000/svg" viewBox="0 0 439 439" width="439" height="439">
	<style>
		tspan { white-space:pre }
		.shp0 { fill: #fefefe } 
	</style>
	<g id="Layer">
		<g id="Layer">
			<path id="Layer" class="shp0" d="M5.42,428.83h94.22v-282.93h-94.22z" />
			<path id="Layer" class="shp0" d="M408.84,171.74c-19.79,-21.6 -45.97,-32.41 -78.51,-32.41c-11.99,0 -22.89,1.47 -32.69,4.43c-9.8,2.95 -18.08,7.09 -24.84,12.42c-6.75,5.33 -12.13,10.28 -16.13,14.84c-3.8,4.34 -7.51,9.39 -11.14,15.1v-40.23h-93.93l0.29,13.71c0.19,9.14 0.29,37.31 0.29,84.51c0,47.2 -0.19,108.78 -0.57,184.72h93.93v-157.89c0,-9.7 1.04,-17.41 3.14,-23.13c4,-9.71 10.04,-17.84 18.13,-24.41c8.09,-6.57 18.13,-9.85 30.13,-9.85c16.36,0 28.41,5.66 36.12,16.99c7.71,11.32 11.56,26.98 11.56,46.97v151.31h93.93v-162.16c-0.01,-41.69 -9.9,-73.33 -29.69,-94.92z" />
			<path id="Layer" class="shp0" d="M53.1,9.71c-15.8,0 -28.59,4.62 -38.4,13.85c-9.8,9.23 -14.7,20.89 -14.7,34.97c0,13.89 4.76,25.51 14.28,34.83c9.51,9.33 22.08,13.99 37.69,13.99h0.57c15.99,0 28.89,-4.66 38.69,-13.99c9.8,-9.32 14.61,-20.93 14.42,-34.83c-0.19,-14.09 -5.05,-25.74 -14.56,-34.97c-9.51,-9.23 -22.17,-13.85 -37.97,-13.85z" />
		</g>
	</g>
	<g id="Layer">
	</g>
	<g id="Layer">
	</g>
	<g id="Layer">
	</g>
	<g id="Layer">
	</g>
	<g id="Layer">
	</g>
	<g id="Layer">
	</g>
	<g id="Layer">
	</g>
	<g id="Layer">
	</g>
	<g id="Layer">
	</g>
	<g id="Layer">
	</g>
	<g id="Layer">
	</g>
	<g id="Layer">
	</g>
	<g id="Layer">
	</g>
	<g id="Layer">
	</g>
	<g id="Layer">
	</g>
</svg>