<svg xmlns="http://www.w3.org/2000/svg" viewBox="0 0 439 439" width="439" height="439">
	<style>
		tspan { white-space:pre }
		.shp0 { fill: #fefefe } 
	</style>
	<g id="Layer">
		<path id="Layer" class="shp0" d="M409.14,109.2c-19.61,-33.59 -46.2,-60.19 -79.8,-79.8c-33.59,-19.61 -70.28,-29.41 -110.06,-29.41c-39.78,0 -76.47,9.8 -110.06,29.41c-33.6,19.6 -60.19,46.2 -79.8,79.8c-19.61,33.6 -29.41,70.28 -29.41,110.06c0,44.35 12.09,84.61 36.26,120.77c24.17,36.17 55.86,62.91 95.07,80.23c-0.76,-20.37 0.48,-37.21 3.71,-50.53l28.27,-119.35c-4.76,-9.33 -7.14,-20.93 -7.14,-34.83c0,-16.18 4.09,-29.69 12.28,-40.54c8.19,-10.85 18.18,-16.27 29.98,-16.27c9.51,0 16.84,3.14 21.98,9.42c5.14,6.28 7.71,14.18 7.71,23.7c0,5.9 -1.1,13.08 -3.29,21.55c-2.19,8.47 -5.04,18.27 -8.56,29.41c-3.52,11.13 -6.04,20.04 -7.57,26.69c-2.66,11.61 -0.48,21.55 6.57,29.84c7.04,8.28 16.37,12.42 27.98,12.42c20.36,0 37.07,-11.32 50.11,-33.97c13.04,-22.65 19.55,-50.16 19.55,-82.51c0,-24.94 -8.04,-45.21 -24.13,-60.81c-16.08,-15.61 -38.5,-23.42 -67.24,-23.42c-32.16,0 -58.19,10.33 -78.08,30.98c-19.89,20.65 -29.84,45.35 -29.84,74.09c0,17.13 4.85,31.5 14.56,43.11c3.24,3.81 4.28,7.9 3.14,12.28c-0.38,1.14 -1.14,4 -2.28,8.56c-1.14,4.56 -1.9,7.52 -2.28,8.85c-1.52,6.09 -5.14,7.99 -10.85,5.71c-14.65,-6.08 -25.79,-16.65 -33.4,-31.69c-7.61,-15.04 -11.42,-32.46 -11.42,-52.25c0,-12.75 2.05,-25.5 6.14,-38.26c4.09,-12.76 10.47,-25.08 19.13,-36.97c8.66,-11.9 19.04,-22.42 31.12,-31.55c12.08,-9.14 26.79,-16.46 44.11,-21.98c17.32,-5.52 35.97,-8.28 55.96,-8.28c27.03,0 51.3,6 72.8,17.99c21.51,11.99 37.93,27.5 49.25,46.54c11.33,19.04 16.99,39.4 16.99,61.1c0,28.55 -4.95,54.24 -14.84,77.09c-9.9,22.84 -23.89,40.78 -41.97,53.81c-18.08,13.04 -38.64,19.56 -61.68,19.56c-11.61,0 -22.46,-2.71 -32.55,-8.13c-10.09,-5.43 -17.03,-11.85 -20.84,-19.27c-8.57,33.69 -13.71,53.77 -15.42,60.24c-3.62,13.51 -11.04,29.12 -22.27,46.82c20.37,6.09 41.11,9.13 62.24,9.13c39.78,0 76.47,-9.8 110.06,-29.41c33.6,-19.6 60.19,-46.2 79.79,-79.79c19.61,-33.6 29.41,-70.29 29.41,-110.06c0.01,-39.78 -9.78,-76.47 -29.38,-110.06z" />
	</g>
	<g id="Layer">
	</g>
	<g id="Layer">
	</g>
	<g id="Layer">
	</g>
	<g id="Layer">
	</g>
	<g id="Layer">
	</g>
	<g id="Layer">
	</g>
	<g id="Layer">
	</g>
	<g id="Layer">
	</g>
	<g id="Layer">
	</g>
	<g id="Layer">
	</g>
	<g id="Layer">
	</g>
	<g id="Layer">
	</g>
	<g id="Layer">
	</g>
	<g id="Layer">
	</g>
	<g id="Layer">
	</g>
</svg>