<svg xmlns="http://www.w3.org/2000/svg" viewBox="0 0 450 450" width="450" height="450">
	<style>
		tspan { white-space:pre }
		.shp0 { fill: #fefefe } 
	</style>
	<g id="Layer">
		<path id="Layer" class="shp0" d="M449.96,85.66c-17.7,7.61 -35.41,12.37 -53.1,14.28c19.99,-11.99 33.5,-28.93 40.55,-50.82c-18.28,10.85 -37.79,18.27 -58.53,22.27c-18.27,-19.41 -40.73,-29.12 -67.38,-29.12c-25.5,0 -47.25,8.99 -65.24,26.98c-17.98,17.99 -26.98,39.73 -26.98,65.24c0,6.85 0.76,13.9 2.28,21.13c-37.69,-1.9 -73.04,-11.37 -106.07,-28.41c-33.02,-17.04 -61.05,-39.73 -84.08,-68.09c-8.37,14.27 -12.56,29.79 -12.56,46.54c0,15.8 3.71,30.46 11.14,43.97c7.42,13.51 17.42,24.46 29.98,32.83c-14.85,-0.57 -28.74,-4.47 -41.68,-11.71v1.14c0,22.27 7,41.82 20.98,58.67c13.99,16.85 31.64,27.45 52.96,31.83c-8,2.09 -16.09,3.14 -24.27,3.14c-5.33,0 -11.14,-0.48 -17.42,-1.42c5.9,18.46 16.75,33.63 32.55,45.53c15.8,11.9 33.69,18.03 53.68,18.42c-33.5,26.26 -71.66,39.39 -114.49,39.39c-8.19,0 -15.61,-0.37 -22.27,-1.14c42.83,27.6 90.03,41.39 141.61,41.39c32.74,0 63.48,-5.18 92.21,-15.56c28.75,-10.37 53.3,-24.27 73.67,-41.69c20.36,-17.42 37.93,-37.45 52.67,-60.1c14.75,-22.65 25.74,-46.3 32.98,-70.95c7.23,-24.65 10.85,-49.34 10.85,-74.09c0,-5.33 -0.1,-9.32 -0.29,-11.99c18.09,-13.13 33.5,-29.02 46.26,-47.67z" />
	</g>
	<g id="Layer">
	</g>
	<g id="Layer">
	</g>
	<g id="Layer">
	</g>
	<g id="Layer">
	</g>
	<g id="Layer">
	</g>
	<g id="Layer">
	</g>
	<g id="Layer">
	</g>
	<g id="Layer">
	</g>
	<g id="Layer">
	</g>
	<g id="Layer">
	</g>
	<g id="Layer">
	</g>
	<g id="Layer">
	</g>
	<g id="Layer">
	</g>
	<g id="Layer">
	</g>
	<g id="Layer">
	</g>
</svg>