<svg xmlns="http://www.w3.org/2000/svg" viewBox="0 0 512 512" width="512" height="512">
	<style>
		tspan { white-space:pre }
		.shp0 { fill: #fefefe } 
	</style>
	<g id="Layer">
		<g id="Layer">
			<path id="Layer" class="shp0" d="M467.38,364.31c0,44.54 -2.48,77.85 -7.43,99.93c-2.66,11.23 -8.18,20.65 -16.56,28.26c-8.38,7.61 -18.08,11.99 -29.13,13.13c-35.01,4 -87.84,6 -158.45,6c-70.61,0 -123.43,-2 -158.46,-6c-11.04,-1.14 -20.79,-5.52 -29.26,-13.13c-8.47,-7.61 -13.94,-17.04 -16.42,-28.26c-4.95,-21.32 -7.42,-54.63 -7.42,-99.93c0,-44.54 2.48,-77.85 7.42,-99.93c2.67,-11.23 8.19,-20.65 16.56,-28.26c8.38,-7.61 18.18,-12.09 29.41,-13.42c34.83,-3.81 87.56,-5.71 158.17,-5.71c70.62,0 123.44,1.9 158.46,5.71c11.04,1.33 20.8,5.81 29.27,13.42c8.47,7.61 13.94,17.03 16.42,28.26c4.94,21.32 7.42,54.63 7.42,99.93zM165.03,293.22v-26.84h-89.08v26.84h29.98v162.45h28.55v-162.45zM242.11,455.67v-141.04h-25.41v107.92c-5.71,7.99 -11.14,11.99 -16.27,11.99c-3.43,0 -5.43,-2 -6,-6c-0.19,-0.57 -0.29,-3.9 -0.29,-9.99v-103.92h-25.41v111.63c0,9.32 0.77,16.28 2.29,20.84c2.28,7.04 7.8,10.56 16.56,10.56c9.14,0 18.85,-5.8 29.13,-17.42v15.42zM339.18,357.17c0,-13.89 -0.86,-23.32 -2.56,-28.26c-3.24,-10.66 -10,-15.99 -20.27,-15.99c-9.52,0 -18.37,5.14 -26.56,15.41v-61.95h-25.41v189.29h25.41v-13.7c8.57,10.46 17.42,15.7 26.56,15.7c10.28,0 17.03,-5.24 20.27,-15.7c1.7,-5.14 2.56,-14.66 2.56,-28.56zM435.69,390v-29.41c0,-15.04 -2.56,-26.08 -7.71,-33.12c-7.41,-9.7 -17.51,-14.56 -30.26,-14.56c-12.95,0 -23.13,4.85 -30.56,14.56c-5.33,7.04 -7.99,18.08 -7.99,33.12v49.4c0,15.04 2.76,26.08 8.27,33.12c7.43,9.7 17.71,14.56 30.83,14.56c13.7,0 23.99,-5.04 30.84,-15.13c3.44,-5.14 5.43,-10.28 6,-15.41c0.38,-1.72 0.57,-7.23 0.57,-16.56v-3.71h-25.98c0,9.71 -0.2,15.51 -0.57,17.41c-1.33,6.86 -5.14,10.28 -11.42,10.28c-8.76,0 -13.13,-6.56 -13.13,-19.7v-24.84z" />
			<path id="Layer" class="shp0" d="M302.63,336.04c-4.38,0 -8.66,2.1 -12.85,6.28v85.93c4.19,4.19 8.47,6.28 12.85,6.28c7.42,0 11.14,-6.37 11.14,-19.13v-60.24c0,-12.75 -3.71,-19.13 -11.14,-19.13z" />
			<path id="Layer" class="shp0" d="M397.43,336.04c-8.56,0 -12.85,6.48 -12.85,19.41v13.13h25.69v-13.13c0,-12.94 -4.28,-19.41 -12.85,-19.41z" />
			<path id="Layer" class="shp0" d="M148.47,113.92v77.38h28.55v-77.37l34.54,-113.92h-29.12l-19.41,75.09l-20.27,-75.09h-30.26c5.33,15.99 11.52,33.78 18.56,53.39c8.95,26.27 14.75,46.44 17.42,60.53z" />
			<path id="Layer" class="shp0" d="M219.84,178.73c-5.33,-7.23 -7.99,-18.46 -7.99,-33.69v-49.97c0,-15.22 2.66,-26.36 7.99,-33.41c7.23,-9.71 17.22,-14.56 29.98,-14.56c13.13,0 23.22,4.85 30.26,14.56c5.33,7.04 7.99,18.18 7.99,33.41v49.97c0,15.41 -2.66,26.65 -7.99,33.69c-7.04,9.71 -17.13,14.56 -30.26,14.56c-12.76,0 -22.75,-4.85 -29.98,-14.56zM237.54,89.94v59.95c0,13.32 4.09,19.99 12.28,19.99c8.19,0 12.28,-6.66 12.28,-19.99v-59.95c0,-13.13 -4.09,-19.7 -12.27,-19.7c-8.19,0 -12.28,6.57 -12.28,19.7z" />
			<path id="Layer" class="shp0" d="M328.33,193.29c9.52,0 19.33,-5.9 29.41,-17.7v15.7h25.98v-142.47h-25.98v108.78c-5.71,8.19 -11.13,12.28 -16.28,12.28c-3.43,0 -5.43,-2.09 -6,-6.28c-0.19,-0.38 -0.29,-3.72 -0.29,-9.99v-104.78h-25.98v112.49c0,9.71 0.77,16.84 2.29,21.41c2.48,7.04 8.09,10.57 16.84,10.57z" />
		</g>
	</g>
	<g id="Layer">
	</g>
	<g id="Layer">
	</g>
	<g id="Layer">
	</g>
	<g id="Layer">
	</g>
	<g id="Layer">
	</g>
	<g id="Layer">
	</g>
	<g id="Layer">
	</g>
	<g id="Layer">
	</g>
	<g id="Layer">
	</g>
	<g id="Layer">
	</g>
	<g id="Layer">
	</g>
	<g id="Layer">
	</g>
	<g id="Layer">
	</g>
	<g id="Layer">
	</g>
	<g id="Layer">
	</g>
</svg>